<svg xmlns="http://www.w3.org/2000/svg" viewBox="0 0 900 520" font-family="system-ui, -apple-system, sans-serif">
  <defs>
    <marker id="arrow" markerWidth="8" markerHeight="6" refX="8" refY="3" orient="auto">
      <path d="M0,0 L8,3 L0,6" fill="#555"/>
    </marker>
  </defs>

  <!-- Background -->
  <rect width="900" height="520" rx="12" fill="#111" stroke="#222" stroke-width="1"/>
  <text x="450" y="36" text-anchor="middle" fill="#ccc" font-size="20" font-weight="bold">OpenScale — Architecture</text>

  <!-- BLE Scale -->
  <rect x="30" y="70" width="160" height="100" rx="10" fill="#181818" stroke="#333" stroke-width="1.5"/>
  <text x="110" y="100" text-anchor="middle" fill="#ccc" font-size="14" font-weight="bold">BLE Scale</text>
  <text x="110" y="120" text-anchor="middle" fill="#666" font-size="11">FitTrack / SWAN</text>
  <text x="110" y="138" text-anchor="middle" fill="#555" font-size="10">Service 0xFFB0</text>
  <text x="110" y="155" text-anchor="middle" fill="#555" font-size="10">FFB2 Notify</text>

  <!-- Arrow BLE → ESP32 -->
  <line x1="190" y1="120" x2="268" y2="120" stroke="#555" stroke-width="1.5" marker-end="url(#arrow)"/>
  <text x="229" y="112" text-anchor="middle" fill="#666" font-size="9">BLE</text>

  <!-- ESP32 Main Box -->
  <rect x="270" y="55" width="340" height="290" rx="10" fill="#151515" stroke="#444" stroke-width="1.5"/>
  <text x="440" y="80" text-anchor="middle" fill="#ddd" font-size="15" font-weight="bold">ESP32</text>

  <!-- BLE Parser -->
  <rect x="290" y="95" width="130" height="50" rx="6" fill="#1a1a1a" stroke="#444" stroke-width="1"/>
  <text x="355" y="117" text-anchor="middle" fill="#ccc" font-size="11" font-weight="bold">BLE Parser</text>
  <text x="355" y="133" text-anchor="middle" fill="#666" font-size="9">CE/CA/CB/CC</text>

  <!-- Body Composition -->
  <rect x="290" y="160" width="130" height="50" rx="6" fill="#1a1a1a" stroke="#444" stroke-width="1"/>
  <text x="355" y="180" text-anchor="middle" fill="#ccc" font-size="11" font-weight="bold">Body Analysis</text>
  <text x="355" y="196" text-anchor="middle" fill="#666" font-size="9">BIA / Kushner</text>

  <!-- Web Server -->
  <rect x="460" y="95" width="130" height="50" rx="6" fill="#1a1a1a" stroke="#333" stroke-width="1"/>
  <text x="525" y="117" text-anchor="middle" fill="#bbb" font-size="11" font-weight="bold">Web Server</text>
  <text x="525" y="133" text-anchor="middle" fill="#666" font-size="9">Home / Settings</text>

  <!-- REST API -->
  <rect x="460" y="160" width="130" height="50" rx="6" fill="#1a1a1a" stroke="#333" stroke-width="1"/>
  <text x="525" y="180" text-anchor="middle" fill="#bbb" font-size="11" font-weight="bold">REST API</text>
  <text x="525" y="196" text-anchor="middle" fill="#666" font-size="9">/api/last-weight-data</text>

  <!-- NVS Profiles -->
  <rect x="290" y="230" width="130" height="45" rx="6" fill="#1a1a1a" stroke="#333" stroke-width="1"/>
  <text x="355" y="250" text-anchor="middle" fill="#bbb" font-size="11" font-weight="bold">NVS Storage</text>
  <text x="355" y="265" text-anchor="middle" fill="#666" font-size="9">Profiles / Settings</text>

  <!-- WiFi -->
  <rect x="460" y="230" width="130" height="45" rx="6" fill="#1a1a1a" stroke="#333" stroke-width="1"/>
  <text x="525" y="250" text-anchor="middle" fill="#bbb" font-size="11" font-weight="bold">WiFi</text>
  <text x="525" y="265" text-anchor="middle" fill="#666" font-size="9">STA + AP Fallback</text>

  <!-- Internal arrows -->
  <line x1="355" y1="145" x2="355" y2="158" stroke="#555" stroke-width="1" marker-end="url(#arrow)"/>
  <line x1="420" y1="185" x2="458" y2="185" stroke="#444" stroke-width="1" marker-end="url(#arrow)"/>
  <line x1="355" y1="210" x2="355" y2="228" stroke="#444" stroke-width="1" marker-end="url(#arrow)"/>

  <!-- MQTT Broker -->
  <rect x="700" y="70" width="170" height="70" rx="10" fill="#181818" stroke="#333" stroke-width="1.5"/>
  <text x="785" y="98" text-anchor="middle" fill="#bbb" font-size="13" font-weight="bold">MQTT Broker</text>
  <text x="785" y="118" text-anchor="middle" fill="#666" font-size="10">PubSubClient</text>

  <!-- HTTP Webhook -->
  <rect x="700" y="160" width="170" height="70" rx="10" fill="#181818" stroke="#333" stroke-width="1.5"/>
  <text x="785" y="188" text-anchor="middle" fill="#bbb" font-size="13" font-weight="bold">HTTP Webhook</text>
  <text x="785" y="208" text-anchor="middle" fill="#666" font-size="10">POST JSON</text>

  <!-- Browser -->
  <rect x="700" y="260" width="170" height="70" rx="10" fill="#181818" stroke="#333" stroke-width="1.5"/>
  <text x="785" y="288" text-anchor="middle" fill="#bbb" font-size="13" font-weight="bold">Browser</text>
  <text x="785" y="308" text-anchor="middle" fill="#666" font-size="10">Home / Settings UI</text>

  <!-- Arrows ESP32 → Output -->
  <line x1="610" y1="105" x2="698" y2="105" stroke="#555" stroke-width="1.5" marker-end="url(#arrow)"/>
  <text x="654" y="98" text-anchor="middle" fill="#666" font-size="9">JSON</text>

  <line x1="610" y1="195" x2="698" y2="195" stroke="#555" stroke-width="1.5" marker-end="url(#arrow)"/>
  <text x="654" y="188" text-anchor="middle" fill="#666" font-size="9">JSON</text>

  <line x1="610" y1="275" x2="698" y2="295" stroke="#444" stroke-width="1.5" marker-end="url(#arrow)"/>
  <text x="654" y="275" text-anchor="middle" fill="#555" font-size="9">HTTP</text>

  <!-- Measurement Flow -->
  <rect x="30" y="380" width="840" height="120" rx="10" fill="#151515" stroke="#222" stroke-width="1"/>
  <text x="450" y="405" text-anchor="middle" fill="#ccc" font-size="13" font-weight="bold">Measurement Flow</text>

  <!-- Flow steps -->
  <rect x="50" y="420" width="100" height="55" rx="6" fill="#1a1a1a" stroke="#444" stroke-width="1"/>
  <text x="100" y="443" text-anchor="middle" fill="#ccc" font-size="10" font-weight="bold">CE Packets</text>
  <text x="100" y="460" text-anchor="middle" fill="#666" font-size="9">Live Weight</text>

  <line x1="150" y1="447" x2="178" y2="447" stroke="#555" stroke-width="1" marker-end="url(#arrow)"/>

  <rect x="180" y="420" width="100" height="55" rx="6" fill="#1a1a1a" stroke="#444" stroke-width="1"/>
  <text x="230" y="443" text-anchor="middle" fill="#ccc" font-size="10" font-weight="bold">CA Packet</text>
  <text x="230" y="460" text-anchor="middle" fill="#666" font-size="9">Final Weight</text>

  <line x1="280" y1="447" x2="308" y2="447" stroke="#555" stroke-width="1" marker-end="url(#arrow)"/>

  <rect x="310" y="420" width="120" height="55" rx="6" fill="#1a1a1a" stroke="#444" stroke-width="1"/>
  <text x="370" y="443" text-anchor="middle" fill="#ccc" font-size="10" font-weight="bold">CB Packets</text>
  <text x="370" y="460" text-anchor="middle" fill="#666" font-size="9">FD01 = Impedance</text>

  <line x1="430" y1="447" x2="458" y2="447" stroke="#555" stroke-width="1" marker-end="url(#arrow)"/>

  <rect x="460" y="420" width="120" height="55" rx="6" fill="#1a1a1a" stroke="#333" stroke-width="1"/>
  <text x="520" y="440" text-anchor="middle" fill="#bbb" font-size="10" font-weight="bold">Forward</text>
  <text x="520" y="455" text-anchor="middle" fill="#666" font-size="9">FD01 / CC /</text>
  <text x="520" y="467" text-anchor="middle" fill="#666" font-size="9">Disconnect</text>

  <line x1="580" y1="447" x2="608" y2="447" stroke="#555" stroke-width="1" marker-end="url(#arrow)"/>

  <rect x="610" y="420" width="120" height="55" rx="6" fill="#1a1a1a" stroke="#444" stroke-width="1"/>
  <text x="670" y="443" text-anchor="middle" fill="#ccc" font-size="10" font-weight="bold">Calculate</text>
  <text x="670" y="460" text-anchor="middle" fill="#666" font-size="9">Body Composition</text>

  <line x1="730" y1="447" x2="758" y2="447" stroke="#555" stroke-width="1" marker-end="url(#arrow)"/>

  <rect x="760" y="420" width="95" height="55" rx="6" fill="#1a1a1a" stroke="#333" stroke-width="1"/>
  <text x="807" y="440" text-anchor="middle" fill="#bbb" font-size="10" font-weight="bold">Publish</text>
  <text x="807" y="455" text-anchor="middle" fill="#666" font-size="9">MQTT / HTTP</text>
  <text x="807" y="467" text-anchor="middle" fill="#666" font-size="9">/ API</text>
</svg>
